<svg xmlns="http://www.w3.org/2000/svg" viewBox="0 0 800 200">
  <defs>
    <linearGradient id="bgGradient" x1="0%" y1="0%" x2="100%" y2="100%">
      <stop offset="0%" style="stop-color:#0f2744;stop-opacity:1" />
      <stop offset="50%" style="stop-color:#1a365d;stop-opacity:1" />
      <stop offset="100%" style="stop-color:#2c5282;stop-opacity:1" />
    </linearGradient>
    <linearGradient id="lithiumGradient" x1="0%" y1="0%" x2="100%" y2="100%">
      <stop offset="0%" style="stop-color:#bee3f8;stop-opacity:1" />
      <stop offset="100%" style="stop-color:#63b3ed;stop-opacity:1" />
    </linearGradient>
    <linearGradient id="titleGradient" x1="0%" y1="0%" x2="0%" y2="100%">
      <stop offset="0%" style="stop-color:#ffffff;stop-opacity:1" />
      <stop offset="100%" style="stop-color:#e2e8f0;stop-opacity:1" />
    </linearGradient>
    <filter id="glow">
      <feGaussianBlur stdDeviation="2" result="coloredBlur"/>
      <feMerge>
        <feMergeNode in="coloredBlur"/>
        <feMergeNode in="SourceGraphic"/>
      </feMerge>
    </filter>
    <filter id="textShadow" x="-20%" y="-20%" width="140%" height="140%">
      <feDropShadow dx="0" dy="2" stdDeviation="3" flood-color="#000000" flood-opacity="0.3"/>
    </filter>
    <filter id="subtleShadow" x="-20%" y="-20%" width="140%" height="140%">
      <feDropShadow dx="0" dy="1" stdDeviation="1" flood-color="#000000" flood-opacity="0.2"/>
    </filter>
  </defs>
  
  <!-- Background -->
  <rect width="800" height="200" fill="url(#bgGradient)"/>
  
  <!-- Decorative neural network pattern -->
  <g opacity="0.15" stroke="#90cdf4" stroke-width="1" fill="none">
    <circle cx="50" cy="50" r="20"/>
    <circle cx="120" cy="80" r="15"/>
    <circle cx="80" cy="150" r="18"/>
    <circle cx="180" cy="60" r="12"/>
    <circle cx="150" cy="140" r="16"/>
    <line x1="50" y1="50" x2="120" y2="80"/>
    <line x1="120" y1="80" x2="80" y2="150"/>
    <line x1="120" y1="80" x2="180" y2="60"/>
    <line x1="80" y1="150" x2="150" y2="140"/>
    <line x1="180" y1="60" x2="150" y2="140"/>
    
    <circle cx="700" cy="40" r="18"/>
    <circle cx="750" cy="100" r="14"/>
    <circle cx="680" cy="120" r="20"/>
    <circle cx="730" cy="160" r="16"/>
    <circle cx="650" cy="60" r="12"/>
    <line x1="700" y1="40" x2="750" y2="100"/>
    <line x1="750" y1="100" x2="680" y2="120"/>
    <line x1="680" y1="120" x2="730" y2="160"/>
    <line x1="700" y1="40" x2="650" y2="60"/>
    <line x1="650" y1="60" x2="680" y2="120"/>
  </g>
  
  <!-- Lithium atom symbol -->
  <g transform="translate(100, 100)">
    <circle cx="0" cy="0" r="35" fill="url(#lithiumGradient)" filter="url(#glow)"/>
    <text x="0" y="10" font-family="'Palatino Linotype', 'Book Antiqua', Palatino, Georgia, serif" font-size="30" font-weight="bold" fill="#1a365d" text-anchor="middle">Li</text>
    <!-- Electron orbits -->
    <ellipse cx="0" cy="0" rx="50" ry="20" fill="none" stroke="#90cdf4" stroke-width="1.5" opacity="0.6" transform="rotate(-30)"/>
    <ellipse cx="0" cy="0" rx="50" ry="20" fill="none" stroke="#90cdf4" stroke-width="1.5" opacity="0.6" transform="rotate(30)"/>
    <ellipse cx="0" cy="0" rx="50" ry="20" fill="none" stroke="#90cdf4" stroke-width="1.5" opacity="0.6" transform="rotate(90)"/>
    <!-- Electrons -->
    <circle cx="43" cy="-25" r="4" fill="#bee3f8"/>
    <circle cx="-43" cy="25" r="4" fill="#bee3f8"/>
    <circle cx="0" cy="-50" r="4" fill="#bee3f8"/>
  </g>
  
  <!-- Main title -->
  <text x="400" y="58" font-family="'Palatino Linotype', 'Book Antiqua', Palatino, Georgia, serif" font-size="38" font-weight="bold" fill="url(#titleGradient)" text-anchor="middle" letter-spacing="1" filter="url(#textShadow)">
    Lithium &amp; Alzheimer's Disease
  </text>
  
  <!-- Subtitle -->
  <text x="400" y="99" font-family="'Segoe UI', Calibri, 'Helvetica Neue', Arial, sans-serif" font-size="16" fill="#90cdf4" text-anchor="middle" letter-spacing="3" font-weight="300" filter="url(#subtleShadow)">
    PREVENTION RESEARCH PROJECT
  </text>
  
  <!-- Status badges - single centered row with uniform 10px gaps -->
  <g transform="translate(400, 140)">
    <!-- Badge 1: Sources (blue) - width 84 -->
    <g transform="translate(-193, 0)">
      <rect x="-42" y="-11" width="84" height="22" rx="11" fill="#2b6cb0"/>
      <text x="0" y="4" font-family="'Segoe UI', Calibri, 'Helvetica Neue', Arial, sans-serif" font-size="10" font-weight="600" fill="#ffffff" text-anchor="middle" letter-spacing="0.5">
        14 SOURCES
      </text>
    </g>
    
    <!-- Badge 2: RCTs (teal) - width 60 -->
    <g transform="translate(-111, 0)">
      <rect x="-30" y="-11" width="60" height="22" rx="11" fill="#319795"/>
      <text x="0" y="4" font-family="'Segoe UI', Calibri, 'Helvetica Neue', Arial, sans-serif" font-size="10" font-weight="600" fill="#ffffff" text-anchor="middle" letter-spacing="0.5">
        5 RCTs
      </text>
    </g>
    
    <!-- Badge 3: Meta-analyses (purple) - width 110 -->
    <g transform="translate(-16, 0)">
      <rect x="-55" y="-11" width="110" height="22" rx="11" fill="#805ad5"/>
      <text x="0" y="4" font-family="'Segoe UI', Calibri, 'Helvetica Neue', Arial, sans-serif" font-size="10" font-weight="600" fill="#ffffff" text-anchor="middle" letter-spacing="0.5">
        3 META-ANALYSES
      </text>
    </g>
    
    <!-- Badge 4: Evidence (green) - width 80 -->
    <g transform="translate(89, 0)">
      <rect x="-40" y="-11" width="80" height="22" rx="11" fill="#38a169"/>
      <text x="0" y="4" font-family="'Segoe UI', Calibri, 'Helvetica Neue', Arial, sans-serif" font-size="10" font-weight="600" fill="#ffffff" text-anchor="middle" letter-spacing="0.5">
        STRONG
      </text>
    </g>
    
    <!-- Badge 5: Clinical status (amber) - width 96 -->
    <g transform="translate(187, 0)">
      <rect x="-48" y="-11" width="96" height="22" rx="11" fill="#d69e2e"/>
      <text x="0" y="4" font-family="'Segoe UI', Calibri, 'Helvetica Neue', Arial, sans-serif" font-size="10" font-weight="600" fill="#ffffff" text-anchor="middle" letter-spacing="0.5">
        PENDING RCT
      </text>
    </g>
  </g>
  
  <!-- Brain icon (simplified) -->
  <g transform="translate(650, 100)" opacity="0.3">
    <path d="M0,-30 C20,-30 30,-20 30,0 C30,20 20,30 0,30 C-20,30 -30,20 -30,0 C-30,-20 -20,-30 0,-30" 
          fill="none" stroke="#90cdf4" stroke-width="2"/>
    <path d="M-15,-15 Q0,-25 15,-15" fill="none" stroke="#90cdf4" stroke-width="1.5"/>
    <path d="M-20,0 Q0,-10 20,0" fill="none" stroke="#90cdf4" stroke-width="1.5"/>
    <path d="M-15,15 Q0,5 15,15" fill="none" stroke="#90cdf4" stroke-width="1.5"/>
    <line x1="0" y1="-25" x2="0" y2="25" stroke="#90cdf4" stroke-width="1"/>
  </g>
</svg>
